<?xml version="1.0" encoding="utf-8"?>
<!-- Generator: Adobe Illustrator 25.4.1, SVG Export Plug-In . SVG Version: 6.00 Build 0)  -->
<svg version="1.1" id="Layer_1" xmlns="http://www.w3.org/2000/svg" xmlns:xlink="http://www.w3.org/1999/xlink" x="0px" y="0px"
	 viewBox="0 0 251.3 97.1" style="enable-background:new 0 0 251.3 97.1;" xml:space="preserve">
<style type="text/css">
	.st0{fill:#8000FF;}
</style>
<path class="st0" d="M10.6,0.1h7.8v97h-7.8C10.6,97.1,10.6,0.1,10.6,0.1z"/>
<path class="st0" d="M181.3,97h-7.8V0.1c0.2,0,0.4,0,0.6,0c2.2,0,4.4,0,6.5,0c0.5,0,0.8,0.1,0.7,0.6c0,0.2,0,0.3,0,0.5v96V97z"/>
<path class="st0" d="M131,97.1v-0.7c0-31.9,0-63.8,0-95.7c0-0.6,0.2-0.7,0.8-0.7c2.1,0,4.2,0,6.3,0c0.6,0,0.8,0.2,0.7,0.6
	c0,0.1,0,0.3,0,0.4v95c0,1.2,0.1,1-1.2,1L131,97.1z"/>
<path class="st0" d="M26.4,97h-5.1V0.1h5.1V97z"/>
<path class="st0" d="M222.2,0h5.1v97h-5.1V0z"/>
<path class="st0" d="M184.2,0.1h5.1v97h-5.1V0.1z"/>
<path class="st0" d="M146.8,97.1h-5.1v-97h5.1V97.1z"/>
<path class="st0" d="M107,97h-5.1V0h5.1V97z"/>
<path class="st0" d="M246.2,0c1.6,0,3.2,0,4.7,0c0.1,0,0.3,0.2,0.4,0.3c0,0.2,0,0.4,0,0.6v95.4c0,0.8,0,0.8-0.9,0.8h-4.3L246.2,0z"
	/>
<path class="st0" d="M68.9,97h-5.1V0h0.7c1.2,0,2.5,0,3.7,0c0.7,0,0.9,0.2,0.8,0.7c0,0.1,0,0.2,0,0.3L68.9,97L68.9,97z"/>
<path class="st0" d="M215.9,97.1h-4.3c0-0.2,0-0.4,0-0.6c0-31.9,0-63.9,0-95.8c0-0.5,0.2-0.7,0.8-0.7c0.9,0,1.9,0,2.9,0
	c0.7,0,0.9,0.2,0.8,0.7c0,0.1,0,0.2,0,0.2L215.9,97.1L215.9,97.1z"/>
<path class="st0" d="M243.3,97.1h-4.2v-97h4.2V97.1z"/>
<path class="st0" d="M56.7,0.1h4.2v97h-4.2V0.1z"/>
<path class="st0" d="M95.4,97.1h-3.7h-0.6v-97h4.2L95.4,97.1L95.4,97.1z"/>
<path class="st0" d="M115.1,0c0.7,0,1.4,0,2.1,0c0.1,0,0.3,0.2,0.4,0.3c0,0.2,0,0.3,0,0.5V97H115L115.1,0z"/>
<path class="st0" d="M122.9,97.1h-2.5c0-0.2,0-0.4,0-0.6c0-31.9,0-63.8,0-95.8c0-0.5,0.1-0.7,0.8-0.7s1.2,0,1.8,0L122.9,97.1z"/>
<path class="st0" d="M34.5,0c0.8,0,1.5,0,2.1,0c0.2,0.1,0.3,0.2,0.4,0.3c0.1,0.1,0,0.3,0,0.4V97h-2.5V0z"/>
<path class="st0" d="M88.3,97h-2.4V0.1h2.4V97z"/>
<path class="st0" d="M83.1,97h-2.5V0c0.7,0,1.5,0,2.2,0C82.9,0,83,0.2,83,0.3c0,0.2,0,0.4,0,0.6L83.1,97L83.1,97z"/>
<path class="st0" d="M157.4,97H155V0.1h2.4V97z"/>
<path class="st0" d="M165.4,97h-2.5V0c0.7,0,1.5,0,2.2,0c0.1,0,0.2,0.2,0.3,0.3c0,0.2,0,0.4,0,0.6V97z"/>
<path class="st0" d="M170.7,97h-2.5V0c0.7,0,1.5,0,2.2,0c0.1,0,0.2,0.1,0.3,0.3c0,0.2,0,0.4,0,0.6V97L170.7,97z"/>
<path class="st0" d="M77,0c0.7,0,1.4,0,2.1,0c0.2,0,0.3,0.2,0.4,0.3c0,0.2,0,0.3,0,0.5V97H77V0z"/>
<path class="st0" d="M50.3,97h-2.4V0.1h2.4V97z"/>
<path class="st0" d="M203.5,97.1c-0.7,0-1.4,0-2.1,0c-0.2,0-0.3-0.2-0.4-0.3c0-0.2,0-0.3,0-0.5V0.9c0-0.9,0-0.9,1-0.9h1.4
	L203.5,97.1z"/>
<path class="st0" d="M208.8,97.1c-0.7,0-1.4,0-2.1,0c-0.1,0-0.3-0.2-0.4-0.3c0-0.2,0-0.3,0-0.5V0.9c0-0.9,0-0.9,1-0.9h1.5V97.1z"/>
<path class="st0" d="M42.5,0.1H45v97h-2.4L42.5,0.1L42.5,0.1z"/>
<path class="st0" d="M233.8,0.1h2.4v97h-2.4V0.1z"/>
<path class="st0" d="M7.8,97H5.3V0.1h2.5V97z"/>
<path class="st0" d="M2.4,97H0V0.1h2.4V97z"/>
<path class="st0" d="M197.6,48.5c0-15.8,0-31.7,0-47.5c0-0.3,0.1-0.7,0.2-0.8c0.6,0,1.2,0,1.8,0c0.1,0,0.1,0.2,0.1,0.3
	c0,0.2,0,0.4,0,0.6v94.8c0,0.1,0,0.2,0,0.4c0.1,0.4-0.1,0.6-0.7,0.6c-1.7,0-1.4,0.2-1.4-1.2L197.6,48.5z"/>
</svg>
