<svg id="Layer_1" data-name="Layer 1" xmlns="http://www.w3.org/2000/svg" viewBox="0 0 298.15 298.69"><defs><style>.cls-1{fill:#5e02ba;}</style></defs><path class="cls-1" d="M206.75,234.92v51.19l-37.44-34.76L150,299.48c-6.8-17-13.11-32.76-19.28-48.16L93.33,286.23V234.9L44.6,255.76c7.2-16.87,13.9-32.59,20.85-48.9h-51l34.82-37.29L.93,150.15,49,130.83,13.79,93.49H65.5l-20.92-49L93.24,65.35V14.13c12.29,11.4,24.68,22.91,37.47,34.79L150,.79l19.12,47.77,37.58-34.77V65.37l48.7-20.84c-7.18,16.82-13.8,32.34-20.72,48.54h50.93c-11.61,12.38-23.14,24.69-35.14,37.51l48.61,19.56-47.84,19.21,34.8,37.45H234.53c7,16.46,13.7,32.1,20.9,48.95Z" transform="translate(-0.93 -0.79)"/></svg>