<?xml version="1.0" encoding="utf-8"?>
<!-- Generator: Adobe Illustrator 25.4.1, SVG Export Plug-In . SVG Version: 6.00 Build 0)  -->
<svg version="1.1" id="Layer_1" xmlns="http://www.w3.org/2000/svg" xmlns:xlink="http://www.w3.org/1999/xlink" x="0px" y="0px"
	 viewBox="0 0 298.1 298.7" style="enable-background:new 0 0 298.1 298.7;" xml:space="preserve">
<style type="text/css">
	.st0{fill:#8000FF;}
</style>
<path class="st0" d="M205.8,234.1v51.2l-37.4-34.8l-19.3,48.1c-6.8-17-13.1-32.8-19.3-48.2l-37.4,34.9V234l-48.7,21
	c7.2-16.9,13.9-32.6,20.8-48.9h-51l34.8-37.3L0,149.4L48.1,130L12.9,92.7h51.7l-20.9-49l48.7,20.9V13.3
	c12.3,11.4,24.7,22.9,37.5,34.8L149.1,0l19.1,47.8L205.8,13v51.6l48.7-20.8c-7.2,16.8-13.8,32.3-20.7,48.5h50.9
	c-11.6,12.4-23.1,24.7-35.1,37.5l48.6,19.6l-47.8,19.2l34.8,37.4h-51.5c7,16.5,13.7,32.1,20.9,48.9L205.8,234.1z"/>
</svg>
